<?xml version="1.0" encoding="utf-8"?>
<!-- Generator: Adobe Illustrator 19.2.1, SVG Export Plug-In . SVG Version: 6.00 Build 0)  -->
<svg version="1.1" id="Layer_1" xmlns="http://www.w3.org/2000/svg" xmlns:xlink="http://www.w3.org/1999/xlink" x="0px" y="0px"
	 viewBox="0 0 265 90.1" style="enable-background:new 0 0 265 90.1;" xml:space="preserve">
<style type="text/css">
	.st0{fill:#DB4303;}
	.st1{fill:#939598;}
</style>
<path class="st0" d="M17,45.8l21.8,20.8c0.6,0.6,0.8,1.1,0.8,1.7c0,1.1-0.8,2-2.2,2c-0.6,0-1.1-0.2-1.6-0.7L13.5,47.8
	c-1.6-1.4-1.2-3,0.2-4.5l22.4-21.6c0.4-0.4,0.8-0.6,1.3-0.6c1.3,0,2.2,0.8,2.2,2.2c0,0.4-0.2,1-0.7,1.6L17,45.8z"/>
<path class="st1" d="M114.7,6.7c2.1-1.8,5.1,1,3.1,2.8l-36,31.8l38,39.7c2.2,1.9-1.1,4.6-2.9,2.7L79,43.9L63,58.1v24.3
	c0,1.1-0.8,1.9-2.1,1.9c-1.1,0-2-0.8-2-1.9V8.3c0-1.1,1-2.1,2-2.1c1.2,0,2.1,1,2.1,2.1v45.1L114.7,6.7z"/>
<path class="st1" d="M205.4,7.9c1.3-2.1,4-1.4,4,1v73c0,2.8-4.1,2.9-4.1,0V15.4l-31.1,48.9c-1,1.8-3.3,1.8-4.2,0l-31.1-48.6v66.2
	c0,2.9-4.1,2.8-4.1,0v-73c0-2.4,2.7-3,3.9-1l33.5,52.2L205.4,7.9z"/>
<path class="st0" d="M227.1,24.7c-0.5-0.6-0.7-1.2-0.7-1.6c0-1.3,0.8-2.2,2.2-2.2c0.5,0,1,0.2,1.3,0.6l22.4,21.6
	c1.4,1.5,1.8,3,0.2,4.5l-22.4,21.7c-0.5,0.5-1,0.7-1.6,0.7c-1.3,0-2.2-1-2.2-2.1c0-0.6,0.2-1.1,0.8-1.7l21.5-20.7L227.1,24.7z"/>
</svg>
